# xmcd
#
# Track frame offsets: 
#        150
#        11141
#        26285
#        40540
#        52167
#        63853
#        77657
#        89098
#        100539
#        116531
#        128683
#        140473
#
# Disc length: 2008 seconds
#
# Revision: 0
# Processed by: cddbd v1.5.2PL0 Copyright (c) Steve Scherf et al.
# Submitted via: ExactAudioCopy v1.3
#
DISCID=9207d60c
DTITLE=The Kokomo Kings - Fighting Fire with Gasoline
DYEAR=2019
DGENRE=Electric Blues
TTITLE0=The More I Get, The More I Want
TTITLE1=I Thought I Was A Patient Man
TTITLE2=The Rich Man's Pocket
TTITLE3=Tornadohead
TTITLE4=Tied To The Tracks
TTITLE5=The Fish Won't Bite
TTITLE6=Heatwave
TTITLE7=Fooled By The City Lights
TTITLE8=A Big Pile Of Fish
TTITLE9=If I Was An Alien
TTITLE10=It Ain't My House
TTITLE11=Fighting Fire With Gasoline
EXTD=
EXTT0=
EXTT1=
EXTT2=
EXTT3=
EXTT4=
EXTT5=
EXTT6=
EXTT7=
EXTT8=
EXTT9=
EXTT10=
EXTT11=
PLAYORDER=
